<mxGraphModel dx="0" dy="0" grid="1" gridSize="10" guides="1" tooltips="1" connect="1" arrows="1" fold="1" page="0" pageScale="1" background="none" math="0" shadow="0">
  <root>
    <mxCell id="0" />
    <mxCell id="1" parent="0" />
    <mxCell id="node1" parent="1" vertex="1" value="&lt;p style=&quot;margin:0px;margin-top:4px;text-align:center;&quot;&gt;&lt;i&gt;&amp;lt;&amp;lt;interface&amp;gt;&amp;gt;&lt;/i&gt;&lt;br/&gt;&lt;b&gt;AdministratorRepository&lt;/b&gt;&lt;/p&gt;&lt;hr size=&quot;1&quot;/&gt;&lt;p style=&quot;margin:0 0 0 4px;line-height:1.6;&quot;&gt;+ findByEmailAndParola(String, String): Optional&amp;lt;Administrator&amp;gt;&lt;/p&gt;" style="verticalAlign=top;align=left;overflow=fill;fontSize=14;fontFamily=Helvetica;html=1;rounded=0;shadow=0;comic=0;labelBackgroundColor=none;strokeWidth=1;">
      <mxGeometry x="-110" y="179" width="386" height="68" as="geometry" />
    </mxCell>
    <mxCell id="node3" parent="1" vertex="1" value="&lt;p style=&quot;margin:0px;margin-top:4px;text-align:center;&quot;&gt;&lt;i&gt;&amp;lt;&amp;lt;interface&amp;gt;&amp;gt;&lt;/i&gt;&lt;br/&gt;&lt;b&gt;AngajatRepository&lt;/b&gt;&lt;/p&gt;&lt;hr size=&quot;1&quot;/&gt;&lt;p style=&quot;margin:0 0 0 4px;line-height:1.6;&quot;&gt;+ findByEmailAndParola(String, String): Optional&amp;lt;Angajat&amp;gt;&lt;/p&gt;" style="verticalAlign=top;align=left;overflow=fill;fontSize=14;fontFamily=Helvetica;html=1;rounded=0;shadow=0;comic=0;labelBackgroundColor=none;strokeWidth=1;">
      <mxGeometry x="-82" y="327" width="355" height="68" as="geometry" />
    </mxCell>
    <mxCell id="node4" parent="1" vertex="1" value="&lt;p style=&quot;margin:0px;margin-top:4px;text-align:center;&quot;&gt;&lt;i&gt;&amp;lt;&amp;lt;interface&amp;gt;&amp;gt;&lt;/i&gt;&lt;br/&gt;&lt;b&gt;ClientRepository&lt;/b&gt;&lt;/p&gt;&lt;hr size=&quot;1&quot;/&gt;" style="verticalAlign=top;align=left;overflow=fill;fontSize=14;fontFamily=Helvetica;html=1;rounded=0;shadow=0;comic=0;labelBackgroundColor=none;strokeWidth=1;">
      <mxGeometry x="336" y="285" width="154" height="36" as="geometry" />
    </mxCell>
    <mxCell id="node2" parent="1" vertex="1" value="&lt;p style=&quot;margin:0px;margin-top:4px;text-align:center;&quot;&gt;&lt;i&gt;&amp;lt;&amp;lt;interface&amp;gt;&amp;gt;&lt;/i&gt;&lt;br/&gt;&lt;b&gt;PachetTuristicRepository&lt;/b&gt;&lt;/p&gt;&lt;hr size=&quot;1&quot;/&gt;&lt;p style=&quot;margin:0 0 0 4px;line-height:1.6;&quot;&gt;+ findPachetTuristicsByPerioadaOrderByDestinatieAscPerioadaAsc(Date): Optional&amp;lt;List&amp;lt;PachetTuristic&amp;gt;&amp;gt;&lt;br/&gt;+ findPachetTuristicsByPretIsLessThanEqualOrderByDestinatieAscPerioadaAsc(Double): Optional&amp;lt;List&amp;lt;PachetTuristic&amp;gt;&amp;gt;&lt;br/&gt;+ findPachetTuristicsByDestinatieOrderByDestinatieAscPerioadaAsc(String): Optional&amp;lt;List&amp;lt;PachetTuristic&amp;gt;&amp;gt;&lt;br/&gt;+ findPachetTuristicsByDestinatieAndPerioadaAndPretIsLessThanEqualOrderByDestinatieAscPerioadaAsc(String, Date, Double): Optional&amp;lt;List&amp;lt;PachetTuristic&amp;gt;&amp;gt;&lt;br/&gt;+ findPachetTuristicsByDestinatieAndPerioadaOrderByDestinatieAscPerioadaAsc(String, Date): Optional&amp;lt;List&amp;lt;PachetTuristic&amp;gt;&amp;gt;&lt;/p&gt;" style="verticalAlign=top;align=left;overflow=fill;fontSize=14;fontFamily=Helvetica;html=1;rounded=0;shadow=0;comic=0;labelBackgroundColor=none;strokeWidth=1;">
      <mxGeometry x="559" y="198" width="545" height="142" as="geometry" />
    </mxCell>
    <mxCell id="node0" parent="1" vertex="1" value="&lt;p style=&quot;margin:0px;margin-top:4px;text-align:center;&quot;&gt;&lt;i&gt;&amp;lt;&amp;lt;interface&amp;gt;&amp;gt;&lt;/i&gt;&lt;br/&gt;&lt;b&gt;RezervarePachetRepository&lt;/b&gt;&lt;/p&gt;&lt;hr size=&quot;1&quot;/&gt;&lt;p style=&quot;margin:0 0 0 4px;line-height:1.6;&quot;&gt;+ findRezervarePachetsByIdPachet(Integer): Optional&amp;lt;List&amp;lt;RezervarePachet&amp;gt;&amp;gt;&lt;br/&gt;+ findRezervarePachetByIdPachetAndIdClient(Integer, Integer): Optional&amp;lt;RezervarePachet&amp;gt;&lt;br/&gt;+ findRezervarePachetByDataRezervare(Date): Optional&amp;lt;List&amp;lt;RezervarePachet&amp;gt;&amp;gt;&lt;br/&gt;+ findRezervarePachetsByIdClient(Integer): Optional&amp;lt;List&amp;lt;RezervarePachet&amp;gt;&amp;gt;&lt;/p&gt;" style="verticalAlign=top;align=left;overflow=fill;fontSize=14;fontFamily=Helvetica;html=1;rounded=0;shadow=0;comic=0;labelBackgroundColor=none;strokeWidth=1;">
      <mxGeometry x="329" y="-15" width="524" height="150" as="geometry" />
    </mxCell>
  </root>
</mxGraphModel>